<svg width="367" height="99" viewBox="0 0 367 99" fill="none" xmlns="http://www.w3.org/2000/svg">
<path d="M8.4 3.00119H21V1.32119H0V91.3212H8.4V3.00119Z" fill="black"/>
<path d="M25.3247 89.4012L39.0047 3.48119H41.4047V89.4012H25.3247ZM22.6847 91.3212H49.5647L47.4047 98.8812H49.6847L52.4447 89.4012H49.8047V1.32119H37.2047L22.9247 89.4012H19.8047L22.5647 98.8812H24.8447L22.6847 91.3212Z" fill="black"/>
<path d="M71.6813 89.6412V33.0012H78.2812V31.3212H71.6813V3.00119H83.0813V1.32119H63.2812V91.3212H83.0813V89.6412H71.6813Z" fill="black"/>
<path d="M154.536 3.48119H158.136V1.32119H153.336L152.976 2.0412L139.416 31.3212V1.32119H131.016V91.3212H139.416V33.1212L152.016 91.3212H160.656L147.576 31.3212H141.576L154.536 3.48119Z" fill="black"/>
<path d="M195.709 1.32119H193.669L183.949 59.5212L173.869 1.32119H165.229L175.909 61.3212H183.589L178.789 89.1612C177.589 89.1612 174.469 89.1612 173.029 89.1612V91.3212C173.989 91.3212 178.909 91.3212 180.469 91.3212L195.709 1.32119Z" fill="black"/>
<path d="M222.08 3.00119V91.3212H230.48V1.32119H201.68V91.3212H210.08V3.00119H222.08Z" fill="black"/>
<path d="M261.661 33.4812V91.3212H270.061V1.32119L250.861 58.9212V1.32119H242.461V91.3212L261.661 33.4812Z" fill="black"/>
<path d="M286.266 3.00119V91.3212H294.666V3.00119H303.666V1.32119H277.266V3.00119H286.266Z" fill="black"/>
<path d="M336.489 61.2012C336.489 37.9212 324.249 31.3212 318.009 31.3212V1.32119H309.609V91.3212H318.009C324.249 91.3212 336.489 84.7212 336.489 61.2012ZM327.849 61.3212C327.849 83.7612 324.249 89.7612 318.009 89.7612V32.8812C324.129 32.8812 327.849 38.7612 327.849 61.3212Z" fill="black"/>
<path d="M346.765 87.2412C346.765 89.8812 348.805 91.9212 351.445 91.9212C354.205 91.9212 356.245 89.8812 356.245 87.2412C356.245 84.4812 354.205 82.4412 351.445 82.4412C348.805 82.4412 346.765 84.4812 346.765 87.2412ZM352.165 79.3212C351.925 42.8412 366.325 36.8412 366.565 19.8012C366.805 5.64119 362.125 0.721191 351.805 0.721191C348.325 0.721191 344.965 1.68119 342.325 7.32119H344.485C346.045 3.84119 348.445 2.28119 351.805 2.28119C357.685 2.28119 358.165 14.7612 358.045 19.8012C357.565 37.6812 350.005 43.2012 350.845 79.3212H352.165Z" fill="black"/>
</svg>
