<svg width="95" height="39" viewBox="0 0 95 39" fill="none" xmlns="http://www.w3.org/2000/svg">
<path d="M4.6 22.15L7.85 1.4H8.85V22.15H4.6ZM4.45 23H8.85V38H12.35V0.5H7.1L1.3 37.1H0V38H2.1L4.45 23Z" fill="white"/>
<path d="M23.6938 38H27.1938V0.5H21.9438L16.1437 37.1H14.8438V38H16.9438L22.6938 1.4H23.6938V38Z" fill="white"/>
<path d="M40.1777 13.9V38H43.6777V0.5L35.6777 24.5V0.5H32.1777V38L40.1777 13.9Z" fill="white"/>
<path d="M51.6934 1.2H56.9434V0.5H48.1934V38H51.6934V1.2Z" fill="white"/>
<path d="M57.9102 19.2C57.9102 37.65 62.3102 38.35 64.5602 38.35C66.8102 38.35 71.2102 37.7 71.2102 19.3C71.2102 0.75 66.8102 0.25 64.5602 0.25C62.3102 0.25 57.9102 0.75 57.9102 19.2ZM67.5602 19.3C67.5102 37 65.8102 37.7 64.5602 37.7C63.3102 37.7 61.5602 37 61.5602 19.3C61.5602 1.65 63.3102 0.900001 64.5602 0.900001C65.8102 0.900001 67.5102 1.65 67.5602 19.3Z" fill="white"/>
<path d="M75.918 1.2V38H79.418V1.2H83.168V0.5H72.168V1.2H75.918Z" fill="white"/>
<path d="M90.1699 37.3V13.7H92.9199V13H90.1699V1.2H94.9199V0.5H86.6699V38H94.9199V37.3H90.1699Z" fill="white"/>
</svg>
