<svg width="164" height="89" viewBox="0 0 164 89" fill="none" xmlns="http://www.w3.org/2000/svg">
<path d="M9.8 1.4H11.3V0.5H9.3L9.15 0.800002L3.5 13V0.5H0V38H3.5V13.75L8.75 38H12.35L6.9 13H4.4L9.8 1.4Z" fill="white"/>
<path d="M27.0691 11.8C27.0691 2 21.9691 0.5 19.3691 0.5H15.8691V38H19.3691V23C21.9691 23 27.0691 21.5 27.0691 11.8ZM23.4691 11.75C23.4691 21.15 21.9191 22.35 19.3691 22.35V1.15C21.9691 1.15 23.4691 2.4 23.4691 11.75Z" fill="white"/>
<path d="M31.1625 22.15L34.4125 1.4H35.4125V22.15H31.1625ZM31.0125 23H35.4125V38H38.9125V0.5H33.6625L27.8625 37.1H26.5625V38H28.6625L31.0125 23Z" fill="white"/>
<path d="M50.0582 37.7C48.8082 37.7 47.0582 37 47.0582 19.3C47.0582 1.65 48.8082 0.900001 50.0582 0.900001C51.4582 0.900001 52.4582 1.55 53.1082 3H54.0082C52.9082 0.650001 51.5082 0.25 50.0582 0.25C47.8082 0.25 43.4082 0.75 43.4082 19.2C43.4082 37.65 47.8082 38.35 50.0582 38.35C51.5082 38.35 52.9082 37.95 54.0082 35.6H53.1082C52.4582 37.05 51.4582 37.7 50.0582 37.7Z" fill="white"/>
<path d="M65.9824 0.5V13H60.4824V0.5H56.9824V38H60.4824V13.7H65.9824V38H69.4824V0.5H65.9824Z" fill="white"/>
<path d="M73.9746 19.2C73.9746 37.65 78.3746 38.35 80.6246 38.35C82.8746 38.35 87.2746 37.7 87.2746 19.3C87.2746 0.75 82.8746 0.25 80.6246 0.25C78.3746 0.25 73.9746 0.75 73.9746 19.2ZM83.6246 19.3C83.5746 37 81.8746 37.7 80.6246 37.7C79.3746 37.7 77.6246 37 77.6246 19.3C77.6246 1.65 79.3746 0.900001 80.6246 0.900001C81.8746 0.900001 83.5746 1.65 83.6246 19.3Z" fill="white"/>
<path d="M97.4215 37.7C96.1715 37.7 94.4215 37 94.4215 19.3C94.4215 1.65 96.1715 0.900001 97.4215 0.900001C98.8215 0.900001 99.8215 1.55 100.471 3H101.371C100.271 0.650001 98.8715 0.25 97.4215 0.25C95.1715 0.25 90.7715 0.75 90.7715 19.2C90.7715 37.65 95.1715 38.35 97.4215 38.35C98.8715 38.35 100.271 37.95 101.371 35.6H100.471C99.8215 37.05 98.8215 37.7 97.4215 37.7Z" fill="white"/>
<path d="M106.631 1.2V38H110.131V1.2H113.881V0.5H102.881V1.2H106.631Z" fill="white"/>
<path d="M115.381 19.2C115.381 37.65 119.781 38.35 122.031 38.35C124.281 38.35 128.681 37.7 128.681 19.3C128.681 0.75 124.281 0.25 122.031 0.25C119.781 0.25 115.381 0.75 115.381 19.2ZM125.031 19.3C124.981 37 123.281 37.7 122.031 37.7C120.781 37.7 119.031 37 119.031 19.3C119.031 1.65 120.781 0.900001 122.031 0.900001C123.281 0.900001 124.981 1.65 125.031 19.3Z" fill="white"/>
<path d="M141.166 1.2V38H144.666V0.5H132.666V38H136.166V1.2H141.166Z" fill="white"/>
<path d="M5.8 63C6.6 62.8 7.75 62.05 8.25 61.35C11.75 56.65 9.5 50.15 4 50.15C2.55 50.15 0.65 50.55 0.05 52.9H0.95C1.35 51.45 2.6 50.8 4 50.8C8.1 50.8 8.45 62.9 3.75 63V63.65C10.15 65.65 8.45 87.75 4 87.7C2.6 87.7 1.35 87.05 0.95 85.6H0.05C0.65 87.95 2.55 88.35 4 88.35C12.35 88.4 14.1 70.75 8.5 64.6C7.85 63.9 6.6 63.1 5.8 63Z" fill="white"/>
<path d="M14.7461 69.2C14.7461 87.65 19.1461 88.35 21.3961 88.35C23.6461 88.35 28.0461 87.7 28.0461 69.3C28.0461 50.75 23.6461 50.25 21.3961 50.25C19.1461 50.25 14.7461 50.75 14.7461 69.2ZM24.3961 69.3C24.3461 87 22.6461 87.7 21.3961 87.7C20.1461 87.7 18.3961 87 18.3961 69.3C18.3961 51.65 20.1461 50.9 21.3961 50.9C22.6461 50.9 24.3461 51.65 24.3961 69.3Z" fill="white"/>
<path d="M38.391 88H41.891V50.5H36.641L30.841 87.1H29.541V88H31.641L37.391 51.4H38.391V88Z" fill="white"/>
<path d="M46.875 69.2C46.875 87.65 51.275 88.35 53.525 88.35C55.775 88.35 60.175 87.7 60.175 69.3C60.175 50.75 55.775 50.25 53.525 50.25C51.275 50.25 46.875 50.75 46.875 69.2ZM56.525 69.3C56.475 87 54.775 87.7 53.525 87.7C52.275 87.7 50.525 87 50.525 69.3C50.525 51.65 52.275 50.9 53.525 50.9C54.775 50.9 56.475 51.65 56.525 69.3Z" fill="white"/>
<path d="M64.8828 51.2V88H68.3828V51.2H72.1328V50.5H61.1328V51.2H64.8828Z" fill="white"/>
<path d="M73.6328 69.2C73.6328 87.65 78.0328 88.35 80.2828 88.35C82.5328 88.35 86.9328 87.7 86.9328 69.3C86.9328 50.75 82.5328 50.25 80.2828 50.25C78.0328 50.25 73.6328 50.75 73.6328 69.2ZM83.2828 69.3C83.2328 87 81.5328 87.7 80.2828 87.7C79.0328 87.7 77.2828 87 77.2828 69.3C77.2828 51.65 79.0328 50.9 80.2828 50.9C81.5328 50.9 83.2328 51.65 83.2828 69.3Z" fill="white"/>
<path d="M94.9062 88C97.0062 88 102.556 86 102.606 75.55C102.606 67.15 98.9062 63.7 96.5563 63.2C102.556 62.35 103.156 50.5 94.9062 50.5H91.4062V88H94.9062ZM94.9062 51.15C99.1562 51.15 99.2562 62.7 94.9062 62.7V51.15ZM99.0062 75.5C99.0062 84.85 97.5062 87.35 94.9062 87.35V63.65C97.4563 63.65 99.0062 66.1 99.0062 75.5Z" fill="white"/>
<path d="M112.216 87.7C110.966 87.7 109.216 87 109.216 69.3C109.216 51.65 110.966 50.9 112.216 50.9C113.616 50.9 114.616 51.55 115.266 53H116.166C115.066 50.65 113.666 50.25 112.216 50.25C109.966 50.25 105.566 50.75 105.566 69.2C105.566 87.65 109.966 88.35 112.216 88.35C113.666 88.35 115.066 87.95 116.166 85.6H115.266C114.616 87.05 113.616 87.7 112.216 87.7Z" fill="white"/>
<path d="M128.941 51.4H130.441V50.5H128.441L128.291 50.8L122.641 63V50.5H119.141V88H122.641V63.75L127.891 88H131.491L126.041 63H123.541L128.941 51.4Z" fill="white"/>
<path d="M143.01 63.9V88H146.51V50.5L138.51 74.5V50.5H135.01V88L143.01 63.9Z" fill="white"/>
<path d="M160.177 46.65H158.127V51.55H158.677L160.177 46.65ZM159.527 63.9V88H163.027V50.5L155.027 74.5V50.5H151.527V88L159.527 63.9Z" fill="white"/>
</svg>
