<svg width="149" height="46" viewBox="0 0 149 46" fill="none" xmlns="http://www.w3.org/2000/svg">
<path d="M9.8 5.40002H11.3V4.50002H9.3L9.15 4.80002L3.5 17V4.50002H0V42H3.5V17.75L8.75 42H12.35L6.9 17H4.4L9.8 5.40002Z" fill="#D9D9D9"/>
<path d="M26.9555 4.50002H26.1055L22.0555 28.75L17.8555 4.50002H14.2555L18.7055 29.5H21.9055L19.9055 41.1C19.4055 41.1 18.1055 41.1 17.5055 41.1V42C17.9055 42 19.9555 42 20.6055 42L26.9555 4.50002Z" fill="#D9D9D9"/>
<path d="M30.4797 14L35.0797 30.95L40.0797 17.05V42H43.5797V4.50002L36.7297 23.6L31.4297 4.50002H29.5797V41.1H27.9297V42H30.4797V14Z" fill="#D9D9D9"/>
<path d="M66.7957 42L65.9457 45.05H66.8957L67.9957 41.3H66.5957V4.50002H63.0957V41.3H59.0957V4.50002H55.5957V41.3H51.5957V4.50002H48.0957V42H66.7957Z" fill="#D9D9D9"/>
<path d="M74.6195 26.15L77.8695 5.40002H78.8695V26.15H74.6195ZM74.4695 27H78.8695V42H82.3695V4.50002H77.1195L71.3195 41.1H70.0195V42H72.1195L74.4695 27Z" fill="#D9D9D9"/>
<path d="M95.8535 41.3H90.8535V4.50002H87.3535V42H99.2535L98.4035 45.05H99.3535L100.454 41.3H99.3535V4.50002H95.8535V41.3Z" fill="#D9D9D9"/>
<path d="M114.243 5.40002H115.743V4.50002H113.743L113.593 4.80002L107.943 17V4.50002H104.443V42H107.943V17.75L113.193 42H116.793L111.343 17H108.843L114.243 5.40002Z" fill="#D9D9D9"/>
<path d="M128.312 17.9V42H131.812V4.50002L123.812 28.5V4.50002H120.312V42L128.312 17.9Z" fill="#D9D9D9"/>
<path d="M145.48 0.650024H143.43V5.55002H143.98L145.48 0.650024ZM144.83 17.9V42H148.33V4.50002L140.33 28.5V4.50002H136.83V42L144.83 17.9Z" fill="#D9D9D9"/>
</svg>
