<svg width="179" height="43" viewBox="0 0 179 43" fill="none" xmlns="http://www.w3.org/2000/svg">
<path d="M8.5 5.20002V42H12V4.50002H0V42H3.5V5.20002H8.5Z" fill="#D9D9D9"/>
<path d="M27.5902 4.50002H26.7402L22.6902 28.75L18.4902 4.50002H14.8902L19.3402 29.5H22.5402L20.5402 41.1C20.0402 41.1 18.7402 41.1 18.1402 41.1V42C18.5402 42 20.5902 42 21.2402 42L27.5902 4.50002Z" fill="#D9D9D9"/>
<path d="M38.3645 42H41.8645L36.7645 20.7L41.0145 5.40002H42.3645V4.50002H40.3145L36.3145 18.85L32.8645 4.50002H29.3645L34.3145 25.2L29.8645 41.1H28.6145V42H30.5145L34.7645 27L38.3645 42Z" fill="#D9D9D9"/>
<path d="M51.2328 42H54.7328V4.50002H49.4828L43.6828 41.1H42.3828V42H44.4828L50.2328 5.40002H51.2328V42Z" fill="#D9D9D9"/>
<path d="M60.102 41.1H58.252V42H60.852L65.652 26.85C66.202 26.95 66.702 27 67.102 27V42H70.602V4.50002H67.102C64.502 4.50002 59.402 6.00002 59.402 15.8C59.402 22.9 62.102 25.6 64.602 26.55L60.102 41.1ZM63.002 15.75C63.002 6.40003 64.502 5.15002 67.102 5.15002V26.35C64.5519 26.35 63.002 25.15 63.002 15.75Z" fill="#D9D9D9"/>
<path d="M83.9211 5.40002H85.4211V4.50002H83.4211L83.2711 4.80002L77.6211 17V4.50002H74.1211V42H77.6211V17.75L82.8711 42H86.4711L81.0211 17H78.5211L83.9211 5.40002Z" fill="#D9D9D9"/>
<path d="M88.9648 23.2C88.9648 41.65 93.3648 42.35 95.6148 42.35C97.8648 42.35 102.265 41.7 102.265 23.3C102.265 4.75002 97.8648 4.25002 95.6148 4.25002C93.3648 4.25002 88.9648 4.75002 88.9648 23.2ZM98.6148 23.3C98.5648 41 96.8648 41.7 95.6148 41.7C94.3648 41.7 92.6148 41 92.6148 23.3C92.6148 5.65002 94.3648 4.90002 95.6148 4.90002C96.8648 4.90002 98.5648 5.65002 98.6148 23.3Z" fill="#D9D9D9"/>
<path d="M110.238 42C112.338 42 117.888 40 117.938 29.55C117.938 21.15 114.238 17.7 111.888 17.2C117.888 16.35 118.488 4.50002 110.238 4.50002H106.738V42H110.238ZM110.238 5.15002C114.488 5.15002 114.588 16.7 110.238 16.7V5.15002ZM114.338 29.5C114.338 38.85 112.838 41.35 110.238 41.35V17.65C112.788 17.65 114.338 20.1 114.338 29.5Z" fill="#D9D9D9"/>
<path d="M127.548 41.7C126.298 41.7 124.548 41 124.548 23.3C124.548 5.65002 126.298 4.90002 127.548 4.90002C128.948 4.90002 129.948 5.55002 130.598 7.00002H131.498C130.398 4.65002 128.998 4.25002 127.548 4.25002C125.298 4.25002 120.898 4.75002 120.898 23.2C120.898 41.65 125.298 42.35 127.548 42.35C128.998 42.35 130.398 41.95 131.498 39.6H130.598C129.948 41.05 128.948 41.7 127.548 41.7Z" fill="#D9D9D9"/>
<path d="M144.273 5.40002H145.773V4.50002H143.773L143.623 4.80002L137.973 17V4.50002H134.473V42H137.973V17.75L143.223 42H146.823L141.373 17H138.873L144.273 5.40002Z" fill="#D9D9D9"/>
<path d="M158.342 17.9V42H161.842V4.50002L153.842 28.5V4.50002H150.342V42L158.342 17.9Z" fill="#D9D9D9"/>
<path d="M175.509 0.650024H173.459V5.55002H174.009L175.509 0.650024ZM174.859 17.9V42H178.359V4.50002L170.359 28.5V4.50002H166.859V42L174.859 17.9Z" fill="#D9D9D9"/>
</svg>
