<svg width="113" height="39" viewBox="0 0 113 39" fill="none" xmlns="http://www.w3.org/2000/svg">
<path d="M6.65 37.7C5.4 37.7 3.65 37 3.65 19.3C3.65 1.65 5.4 0.900001 6.65 0.900001C8.05 0.900001 9.05 1.55 9.7 3H10.6C9.5 0.650001 8.1 0.25 6.65 0.25C4.4 0.25 0 0.75 0 19.2C0 37.65 4.4 38.35 6.65 38.35C8.1 38.35 9.5 37.95 10.6 35.6H9.7C9.05 37.05 8.05 37.7 6.65 37.7Z" fill="white"/>
<path d="M16.7094 22.15L19.9594 1.4H20.9594V22.15H16.7094ZM16.5594 23H20.9594V38H24.4594V0.5H19.2094L13.4094 37.1H12.1094V38H14.2094L16.5594 23Z" fill="white"/>
<path d="M37.9434 1.2V38H41.4434V0.5H29.4434V38H32.9434V1.2H37.9434Z" fill="white"/>
<path d="M49.9355 37.3V13.7H52.6855V13H49.9355V1.2H54.6855V0.5H46.4355V38H54.6855V37.3H49.9355Z" fill="white"/>
<path d="M69.4031 11.8C69.4031 2 64.3031 0.5 61.7031 0.5H58.2031V38H61.7031V23C64.3031 23 69.4031 21.5 69.4031 11.8ZM65.8031 11.75C65.8031 21.15 64.2531 22.35 61.7031 22.35V1.15C64.3031 1.15 65.8031 2.4 65.8031 11.75Z" fill="white"/>
<path d="M73.4965 22.15L76.7465 1.4H77.7465V22.15H73.4965ZM73.3465 23H77.7465V38H81.2465V0.5H75.9965L70.1965 37.1H68.8965V38H70.9965L73.3465 23Z" fill="white"/>
<path d="M89.7305 38C91.8305 38 97.3805 36 97.4305 25.55C97.4305 17.15 93.7305 13.7 91.3805 13.2C97.3805 12.35 97.9805 0.5 89.7305 0.5H86.2305V38H89.7305ZM89.7305 1.15C93.9805 1.15 94.0805 12.7 89.7305 12.7V1.15ZM93.8305 25.5C93.8305 34.85 92.3305 37.35 89.7305 37.35V13.65C92.2805 13.65 93.8305 16.1 93.8305 25.5Z" fill="white"/>
<path d="M109.416 13.9V38H112.916V0.5L104.916 24.5V0.5H101.416V38L109.416 13.9Z" fill="white"/>
</svg>
