<svg width="169" height="43" viewBox="0 0 169 43" fill="none" xmlns="http://www.w3.org/2000/svg">
<path d="M6.65 41.7C5.4 41.7 3.65 41 3.65 23.3C3.65 5.65002 5.4 4.90002 6.65 4.90002C8.05 4.90002 9.05 5.55002 9.7 7.00002H10.6C9.5 4.65002 8.1 4.25002 6.65 4.25002C4.4 4.25002 0 4.75002 0 23.2C0 41.65 4.4 42.35 6.65 42.35C8.1 42.35 9.5 41.95 10.6 39.6H9.7C9.05 41.05 8.05 41.7 6.65 41.7Z" fill="white"/>
<path d="M21.5742 17.9V42H25.0742V4.50002L17.0742 28.5V4.50002H13.5742V42L21.5742 17.9Z" fill="white"/>
<path d="M33.5781 5.20002H38.8281V4.50002H30.0781V42H33.5781C36.1781 42 41.2781 39.25 41.2781 29.45C41.2781 19.75 36.1781 17 33.5781 17V5.20002ZM37.6781 29.5C37.6781 38.85 36.1781 41.35 33.5781 41.35V17.65C36.1281 17.65 37.6781 20.1 37.6781 29.5Z" fill="white"/>
<path d="M52.7754 17.9V42H56.2754V4.50002L48.2754 28.5V4.50002H44.7754V42L52.7754 17.9Z" fill="white"/>
<path d="M71.991 15.8C71.991 6.00002 66.891 4.50002 64.291 4.50002H60.791V42H64.291V27C66.891 27 71.991 25.5 71.991 15.8ZM68.391 15.75C68.391 25.15 66.841 26.35 64.291 26.35V5.15002C66.891 5.15002 68.391 6.40003 68.391 15.75Z" fill="white"/>
<path d="M86.1512 29.45C86.1512 19.75 81.0512 17 78.4512 17V4.50002H74.9512V42H78.4512C81.0512 42 86.1512 39.25 86.1512 29.45ZM82.5512 29.5C82.5512 38.85 81.0512 41.35 78.4512 41.35V17.65C81.0012 17.65 82.5512 20.1 82.5512 29.5Z" fill="white"/>
<path d="M98.423 5.40002H99.923V4.50002H97.923L97.773 4.80002L92.123 17V4.50002H88.623V42H92.123V17.75L97.373 42H100.973L95.523 17H93.023L98.423 5.40002Z" fill="white"/>
<path d="M103.467 23.2C103.467 41.65 107.867 42.35 110.117 42.35C112.367 42.35 116.767 41.7 116.767 23.3C116.767 4.75002 112.367 4.25002 110.117 4.25002C107.867 4.25002 103.467 4.75002 103.467 23.2ZM113.117 23.3C113.067 41 111.367 41.7 110.117 41.7C108.867 41.7 107.117 41 107.117 23.3C107.117 5.65002 108.867 4.90002 110.117 4.90002C111.367 4.90002 113.067 5.65002 113.117 23.3Z" fill="white"/>
<path d="M124.74 42C126.84 42 132.39 40 132.44 29.55C132.44 21.15 128.74 17.7 126.39 17.2C132.39 16.35 132.99 4.50002 124.74 4.50002H121.24V42H124.74ZM124.74 5.15002C128.99 5.15002 129.09 16.7 124.74 16.7V5.15002ZM128.84 29.5C128.84 38.85 127.34 41.35 124.74 41.35V17.65C127.29 17.65 128.84 20.1 128.84 29.5Z" fill="white"/>
<path d="M147.626 29.45C147.626 19.75 142.526 17 139.926 17V4.50002H136.426V42H139.926C142.526 42 147.626 39.25 147.626 29.45ZM144.026 29.5C144.026 38.85 142.526 41.35 139.926 41.35V17.65C142.476 17.65 144.026 20.1 144.026 29.5ZM152.926 42V4.50002H149.426V42H152.926Z" fill="white"/>
<path d="M166.086 0.650024H164.036V5.55002H164.586L166.086 0.650024ZM165.436 17.9V42H168.936V4.50002L160.936 28.5V4.50002H157.436V42L165.436 17.9Z" fill="white"/>
</svg>
