<svg width="270" height="96" viewBox="0 0 270 96" fill="none" xmlns="http://www.w3.org/2000/svg">
<path d="M8.5 41.3H3.5V4.49999H0V42H11.9L11.05 45.05H12L13.1 41.3H12V4.49999H8.5V41.3Z" fill="white"/>
<path d="M25.0898 17.9V42H28.5898V4.49999L20.5898 28.5V4.49999H17.0898V42L25.0898 17.9Z" fill="white"/>
<path d="M34.6789 14L39.2789 30.95L44.2789 17.05V42H47.7789V4.49999L40.9289 23.6L35.6289 4.49999H33.7789V41.1H32.1289V42H34.6789V14Z" fill="white"/>
<path d="M60.1684 42H63.6684V4.49999H58.4184L52.6184 41.1H51.3184V42H53.4184L59.1684 5.39999H60.1684V42Z" fill="white"/>
<path d="M69.0375 41.1H67.1875V42H69.7875L74.5875 26.85C75.1375 26.95 75.6375 27 76.0375 27V42H79.5375V4.49999H76.0375C73.4375 4.49999 68.3375 5.99999 68.3375 15.8C68.3375 22.9 71.0375 25.6 73.5375 26.55L69.0375 41.1ZM71.9375 15.75C71.9375 6.39999 73.4375 5.14999 76.0375 5.14999V26.35C73.4875 26.35 71.9375 25.15 71.9375 15.75Z" fill="white"/>
<path d="M93.0332 4.49999V17H87.5332V4.49999H84.0332V42H87.5332V17.7H93.0332V42H96.5332V4.49999H93.0332Z" fill="white"/>
<path d="M107.675 41.7C106.425 41.7 104.675 41 104.675 23.3C104.675 5.64999 106.425 4.89999 107.675 4.89999C109.075 4.89999 110.075 5.54999 110.725 6.99999H111.625C110.525 4.64999 109.125 4.24999 107.675 4.24999C105.425 4.24999 101.025 4.74999 101.025 23.2C101.025 41.65 105.425 42.35 107.675 42.35C109.125 42.35 110.525 41.95 111.625 39.6H110.725C110.075 41.05 109.075 41.7 107.675 41.7Z" fill="white"/>
<path d="M124.4 5.39999H125.9V4.49999H123.9L123.75 4.79999L118.1 17V4.49999H114.6V42H118.1V17.75L123.35 42H126.95L121.5 17H119L124.4 5.39999Z" fill="white"/>
<path d="M138.469 17.9V42H141.969V4.49999L133.969 28.5V4.49999H130.469V42L138.469 17.9Z" fill="white"/>
<path d="M155.636 0.649994H153.586V5.54999H154.136L155.636 0.649994ZM154.986 17.9V42H158.486V4.49999L150.486 28.5V4.49999H146.986V42L154.986 17.9Z" fill="white"/>
<path d="M180.453 4.49999H176.953V11.7C176.953 17.4 177.453 17.4 184.653 17.4V42H188.153V4.49999H184.653V16.8C181.003 16.8 180.453 16.8 180.453 11.65V4.49999Z" fill="white"/>
<path d="M197.152 41.3V17.7H199.902V17H197.152V5.19999H201.902V4.49999H193.652V42H201.902V41.3H197.152Z" fill="white"/>
<path d="M216.62 15.8C216.62 5.99999 211.52 4.49999 208.92 4.49999H205.42V42H208.92V27C211.52 27 216.62 25.5 216.62 15.8ZM213.02 15.75C213.02 25.15 211.47 26.35 208.92 26.35V5.14999C211.52 5.14999 213.02 6.39999 213.02 15.75Z" fill="white"/>
<path d="M228.58 4.49999V17H223.08V4.49999H219.58V42H223.08V17.7H228.58V42H232.08V4.49999H228.58Z" fill="white"/>
<path d="M248.261 29.45C248.261 19.75 243.161 17 240.561 17V4.49999H237.061V42H240.561C243.161 42 248.261 39.25 248.261 29.45ZM244.661 29.5C244.661 38.85 243.161 41.35 240.561 41.35V17.65C243.111 17.65 244.661 20.1 244.661 29.5ZM253.561 42V4.49999H250.061V42H253.561Z" fill="white"/>
<path d="M266.72 0.649994H264.67V5.54999H265.22L266.72 0.649994ZM266.07 17.9V42H269.57V4.49999L261.57 28.5V4.49999H258.07V42L266.07 17.9Z" fill="white"/>
<path d="M2.55 64L7.15 80.95L12.15 67.05V92H15.65V54.5L8.8 73.6L3.5 54.5H1.65V91.1H0V92H2.55V64Z" fill="white"/>
<path d="M20.166 73.2C20.166 91.65 24.566 92.35 26.816 92.35C29.066 92.35 33.466 91.7 33.466 73.3C33.466 54.75 29.066 54.25 26.816 54.25C24.566 54.25 20.166 54.75 20.166 73.2ZM29.816 73.3C29.766 91 28.066 91.7 26.816 91.7C25.566 91.7 23.816 91 23.816 73.3C23.816 55.65 25.566 54.9 26.816 54.9C28.066 54.9 29.766 55.65 29.816 73.3Z" fill="white"/>
<path d="M43.8109 92H47.3109V54.5H42.0609L36.2609 91.1H34.9609V92H37.0609L42.8109 55.4H43.8109V92Z" fill="white"/>
<path d="M52.2949 73.2C52.2949 91.65 56.6949 92.35 58.9449 92.35C61.1949 92.35 65.5949 91.7 65.5949 73.3C65.5949 54.75 61.1949 54.25 58.9449 54.25C56.6949 54.25 52.2949 54.75 52.2949 73.2ZM61.9449 73.3C61.8949 91 60.1949 91.7 58.9449 91.7C57.6949 91.7 55.9449 91 55.9449 73.3C55.9449 55.65 57.6949 54.9 58.9449 54.9C60.1949 54.9 61.8949 55.65 61.9449 73.3Z" fill="white"/>
<path d="M68.8527 91.2L74.5527 55.4H75.5527V91.2H68.8527ZM67.7527 92H78.9527L78.0527 95.15H79.0027L80.1527 91.2H79.0527V54.5H73.8027L67.8527 91.2H66.5527L67.7027 95.15H68.6527L67.7527 92Z" fill="white"/>
<path d="M94.8914 79.45C94.8914 69.75 89.7914 67 87.1914 67V54.5H83.6914V92H87.1914C89.7914 92 94.8914 89.25 94.8914 79.45ZM91.2914 79.5C91.2914 88.85 89.7914 91.35 87.1914 91.35V67.65C89.7414 67.65 91.2914 70.1 91.2914 79.5ZM100.191 92V54.5H96.6914V92H100.191Z" fill="white"/>
<path d="M107.699 91.3V67.7H110.449V67H107.699V55.2H112.449V54.5H104.199V92H112.449V91.3H107.699Z" fill="white"/>
<path d="M141.272 92H144.772V54.5H139.522L133.722 91.1H132.422V92H134.522L140.272 55.4H141.272V92Z" fill="white"/>
<path d="M149.756 73.2C149.756 91.65 154.156 92.35 156.406 92.35C158.656 92.35 163.056 91.7 163.056 73.3C163.056 54.75 158.656 54.25 156.406 54.25C154.156 54.25 149.756 54.75 149.756 73.2ZM159.406 73.3C159.356 91 157.656 91.7 156.406 91.7C155.156 91.7 153.406 91 153.406 73.3C153.406 55.65 155.156 54.9 156.406 54.9C157.656 54.9 159.356 55.65 159.406 73.3Z" fill="white"/>
<path d="M170.351 67C171.151 66.8 172.301 66.05 172.801 65.35C176.301 60.65 174.051 54.15 168.551 54.15C167.101 54.15 165.201 54.55 164.601 56.9H165.501C165.901 55.45 167.151 54.8 168.551 54.8C172.651 54.8 173.001 66.9 168.301 67V67.65C174.701 69.65 173.001 91.75 168.551 91.7C167.151 91.7 165.901 91.05 165.501 89.6H164.601C165.201 91.95 167.101 92.35 168.551 92.35C176.901 92.4 178.651 74.75 173.051 68.6C172.401 67.9 171.151 67.1 170.351 67Z" fill="white"/>
<path d="M192.011 79.45C192.011 69.75 186.911 67 184.311 67V54.5H180.811V92H184.311C186.911 92 192.011 89.25 192.011 79.45ZM188.411 79.5C188.411 88.85 186.911 91.35 184.311 91.35V67.65C186.861 67.65 188.411 70.1 188.411 79.5ZM197.311 92V54.5H193.811V92H197.311Z" fill="white"/>
</svg>
