<svg width="276" height="96" viewBox="0 0 276 96" fill="none" xmlns="http://www.w3.org/2000/svg">
<path d="M8.5 41.3H3.5V4.49999H0V42H11.9L11.05 45.05H12L13.1 41.3H12V4.49999H8.5V41.3Z" fill="white"/>
<path d="M25.0898 17.9V42H28.5898V4.49999L20.5898 28.5V4.49999H17.0898V42L25.0898 17.9Z" fill="white"/>
<path d="M34.6789 14L39.2789 30.95L44.2789 17.05V42H47.7789V4.49999L40.9289 23.6L35.6289 4.49999H33.7789V41.1H32.1289V42H34.6789V14Z" fill="white"/>
<path d="M60.1684 42H63.6684V4.49999H58.4184L52.6184 41.1H51.3184V42H53.4184L59.1684 5.39999H60.1684V42Z" fill="white"/>
<path d="M69.0375 41.1H67.1875V42H69.7875L74.5875 26.85C75.1375 26.95 75.6375 27 76.0375 27V42H79.5375V4.49999H76.0375C73.4375 4.49999 68.3375 5.99999 68.3375 15.8C68.3375 22.9 71.0375 25.6 73.5375 26.55L69.0375 41.1ZM71.9375 15.75C71.9375 6.39999 73.4375 5.14999 76.0375 5.14999V26.35C73.4875 26.35 71.9375 25.15 71.9375 15.75Z" fill="white"/>
<path d="M93.0332 4.49999V17H87.5332V4.49999H84.0332V42H87.5332V17.7H93.0332V42H96.5332V4.49999H93.0332Z" fill="white"/>
<path d="M107.675 41.7C106.425 41.7 104.675 41 104.675 23.3C104.675 5.64999 106.425 4.89999 107.675 4.89999C109.075 4.89999 110.075 5.54999 110.725 6.99999H111.625C110.525 4.64999 109.125 4.24999 107.675 4.24999C105.425 4.24999 101.025 4.74999 101.025 23.2C101.025 41.65 105.425 42.35 107.675 42.35C109.125 42.35 110.525 41.95 111.625 39.6H110.725C110.075 41.05 109.075 41.7 107.675 41.7Z" fill="white"/>
<path d="M124.4 5.39999H125.9V4.49999H123.9L123.75 4.79999L118.1 17V4.49999H114.6V42H118.1V17.75L123.35 42H126.95L121.5 17H119L124.4 5.39999Z" fill="white"/>
<path d="M138.469 17.9V42H141.969V4.49999L133.969 28.5V4.49999H130.469V42L138.469 17.9Z" fill="white"/>
<path d="M155.636 0.649994H153.586V5.54999H154.136L155.636 0.649994ZM154.986 17.9V42H158.486V4.49999L150.486 28.5V4.49999H146.986V42L154.986 17.9Z" fill="white"/>
<path d="M180.453 4.49999H176.953V11.7C176.953 17.4 177.453 17.4 184.653 17.4V42H188.153V4.49999H184.653V16.8C181.003 16.8 180.453 16.8 180.453 11.65V4.49999Z" fill="white"/>
<path d="M197.152 41.3V17.7H199.902V17H197.152V5.19999H201.902V4.49999H193.652V42H201.902V41.3H197.152Z" fill="white"/>
<path d="M216.62 15.8C216.62 5.99999 211.52 4.49999 208.92 4.49999H205.42V42H208.92V27C211.52 27 216.62 25.5 216.62 15.8ZM213.02 15.75C213.02 25.15 211.47 26.35 208.92 26.35V5.14999C211.52 5.14999 213.02 6.39999 213.02 15.75Z" fill="white"/>
<path d="M228.58 4.49999V17H223.08V4.49999H219.58V42H223.08V17.7H228.58V42H232.08V4.49999H228.58Z" fill="white"/>
<path d="M248.261 29.45C248.261 19.75 243.161 17 240.561 17V4.49999H237.061V42H240.561C243.161 42 248.261 39.25 248.261 29.45ZM244.661 29.5C244.661 38.85 243.161 41.35 240.561 41.35V17.65C243.111 17.65 244.661 20.1 244.661 29.5ZM253.561 42V4.49999H250.061V42H253.561Z" fill="white"/>
<path d="M266.72 0.649994H264.67V5.54999H265.22L266.72 0.649994ZM266.07 17.9V42H269.57V4.49999L261.57 28.5V4.49999H258.07V42L266.07 17.9Z" fill="white"/>
<path d="M6.65 91.7C5.4 91.7 3.65 91 3.65 73.3C3.65 55.65 5.4 54.9 6.65 54.9C8.05 54.9 9.05 55.55 9.7 57H10.6C9.5 54.65 8.1 54.25 6.65 54.25C4.4 54.25 0 54.75 0 73.2C0 91.65 4.4 92.35 6.65 92.35C8.1 92.35 9.5 91.95 10.6 89.6H9.7C9.05 91.05 8.05 91.7 6.65 91.7Z" fill="white"/>
<path d="M34.0664 92C36.1664 92 41.7164 90 41.7664 79.55C41.7664 71.15 38.0664 67.7 35.7164 67.2C41.7164 66.35 42.3164 54.5 34.0664 54.5H30.5664V92H34.0664ZM34.0664 55.15C38.3164 55.15 38.4164 66.7 34.0664 66.7V55.15ZM38.1664 79.5C38.1664 88.85 36.6664 91.35 34.0664 91.35V67.65C36.6164 67.65 38.1664 70.1 38.1664 79.5Z" fill="white"/>
<path d="M56.952 79.45C56.952 69.75 51.852 67 49.252 67V54.5H45.752V92H49.252C51.852 92 56.952 89.25 56.952 79.45ZM53.352 79.5C53.352 88.85 51.852 91.35 49.252 91.35V67.65C51.802 67.65 53.352 70.1 53.352 79.5ZM62.252 92V54.5H58.752V92H62.252Z" fill="white"/>
<path d="M64.5559 91.2L70.2559 55.4H71.2559V91.2H64.5559ZM63.4559 92H74.6559L73.7559 95.15H74.7059L75.8559 91.2H74.7559V54.5H69.5059L63.5559 91.2H62.2559L63.4059 95.15H64.3559L63.4559 92Z" fill="white"/>
<path d="M83.8711 91.3V67.7H86.6211V67H83.8711V55.2H88.6211V54.5H80.3711V92H88.6211V91.3H83.8711Z" fill="white"/>
<path d="M103.339 65.8C103.339 56 98.2387 54.5 95.6387 54.5H92.1387V92H95.6387V77C98.2387 77 103.339 75.5 103.339 65.8ZM99.7387 65.75C99.7387 75.15 98.1887 76.35 95.6387 76.35V55.15C98.2387 55.15 99.7387 56.4 99.7387 65.75Z" fill="white"/>
<path d="M106.52 54.8L106.37 54.5H104.37V55.4H105.87L111.27 67H108.77L103.32 92H106.92L112.17 67.75V92H115.67V67.75L120.92 92H124.52L119.07 67H116.57L121.97 55.4H123.47V54.5H121.47L121.32 54.8L115.67 67V54.5H112.17V67L106.52 54.8Z" fill="white"/>
<path d="M137.339 55.4H138.839V54.5H136.839L136.689 54.8L131.039 67V54.5H127.539V92H131.039V67.75L136.289 92H139.889L134.439 67H131.939L137.339 55.4Z" fill="white"/>
<path d="M142.383 73.2C142.383 91.65 146.783 92.35 149.033 92.35C151.283 92.35 155.683 91.7 155.683 73.3C155.683 54.75 151.283 54.25 149.033 54.25C146.783 54.25 142.383 54.75 142.383 73.2ZM152.033 73.3C151.983 91 150.283 91.7 149.033 91.7C147.783 91.7 146.033 91 146.033 73.3C146.033 55.65 147.783 54.9 149.033 54.9C150.283 54.9 151.983 55.65 152.033 73.3Z" fill="white"/>
<path d="M167.795 50.65H165.745V55.55H166.295L167.795 50.65ZM167.145 67.9V92H170.645V54.5L162.645 78.5V54.5H159.145V92L167.145 67.9Z" fill="white"/>
<path d="M192.611 92C194.711 92 200.261 90 200.311 79.55C200.311 71.15 196.611 67.7 194.261 67.2C200.261 66.35 200.861 54.5 192.611 54.5H189.111V92H192.611ZM192.611 55.15C196.861 55.15 196.961 66.7 192.611 66.7V55.15ZM196.711 79.5C196.711 88.85 195.211 91.35 192.611 91.35V67.65C195.161 67.65 196.711 70.1 196.711 79.5Z" fill="white"/>
<path d="M222.564 91.2L228.264 55.4H229.264V91.2H222.564ZM221.464 92H232.664L231.764 95.15H232.714L233.864 91.2H232.764V54.5H227.514L221.564 91.2H220.264L221.414 95.15H222.364L221.464 92Z" fill="white"/>
<path d="M249.465 54.5H248.615L244.565 78.75L240.365 54.5H236.765L241.215 79.5H244.415L242.415 91.1C241.915 91.1 240.615 91.1 240.015 91.1V92C240.415 92 242.465 92 243.115 92L249.465 54.5Z" fill="white"/>
<path d="M255.941 55.2H261.191V54.5H252.441V92H255.941C258.541 92 263.641 89.25 263.641 79.45C263.641 69.75 258.541 67 255.941 67V55.2ZM260.041 79.5C260.041 88.85 258.541 91.35 255.941 91.35V67.65C258.491 67.65 260.041 70.1 260.041 79.5Z" fill="white"/>
<path d="M270.639 91.3V67.7H273.389V67H270.639V55.2H275.389V54.5H267.139V92H275.389V91.3H270.639Z" fill="white"/>
</svg>
