<svg width="159" height="92" viewBox="0 0 159 92" fill="none" xmlns="http://www.w3.org/2000/svg">
<path d="M8.5 41.3H3.5V4.50002H0V42H11.9L11.05 45.05H12L13.1 41.3H12V4.50002H8.5V41.3Z" fill="white"/>
<path d="M25.0898 17.9V42H28.5898V4.50002L20.5898 28.5V4.50002H17.0898V42L25.0898 17.9Z" fill="white"/>
<path d="M34.6789 14L39.2789 30.95L44.2789 17.05V42H47.7789V4.50002L40.9289 23.6L35.6289 4.50002H33.7789V41.1H32.1289V42H34.6789V14Z" fill="white"/>
<path d="M60.1684 42H63.6684V4.50002H58.4184L52.6184 41.1H51.3184V42H53.4184L59.1684 5.40002H60.1684V42Z" fill="white"/>
<path d="M69.0375 41.1H67.1875V42H69.7875L74.5875 26.85C75.1375 26.95 75.6375 27 76.0375 27V42H79.5375V4.50002H76.0375C73.4375 4.50002 68.3375 6.00002 68.3375 15.8C68.3375 22.9 71.0375 25.6 73.5375 26.55L69.0375 41.1ZM71.9375 15.75C71.9375 6.40003 73.4375 5.15002 76.0375 5.15002V26.35C73.4875 26.35 71.9375 25.15 71.9375 15.75Z" fill="white"/>
<path d="M93.0332 4.50002V17H87.5332V4.50002H84.0332V42H87.5332V17.7H93.0332V42H96.5332V4.50002H93.0332Z" fill="white"/>
<path d="M107.675 41.7C106.425 41.7 104.675 41 104.675 23.3C104.675 5.65002 106.425 4.90002 107.675 4.90002C109.075 4.90002 110.075 5.55002 110.725 7.00002H111.625C110.525 4.65002 109.125 4.25002 107.675 4.25002C105.425 4.25002 101.025 4.75002 101.025 23.2C101.025 41.65 105.425 42.35 107.675 42.35C109.125 42.35 110.525 41.95 111.625 39.6H110.725C110.075 41.05 109.075 41.7 107.675 41.7Z" fill="white"/>
<path d="M124.4 5.40002H125.9V4.50002H123.9L123.75 4.80002L118.1 17V4.50002H114.6V42H118.1V17.75L123.35 42H126.95L121.5 17H119L124.4 5.40002Z" fill="white"/>
<path d="M138.469 17.9V42H141.969V4.50002L133.969 28.5V4.50002H130.469V42L138.469 17.9Z" fill="white"/>
<path d="M155.636 0.650024H153.586V5.55002H154.136L155.636 0.650024ZM154.986 17.9V42H158.486V4.50002L150.486 28.5V4.50002H146.986V42L154.986 17.9Z" fill="white"/>
<path d="M3.5 54.5H0V61.7C0 67.4 0.5 67.4 7.7 67.4V92H11.2V54.5H7.7V66.8C4.05 66.8 3.5 66.8 3.5 61.65V54.5Z" fill="white"/>
<path d="M20.1992 91.3V67.7H22.9492V67H20.1992V55.2H24.9492V54.5H16.6992V92H24.9492V91.3H20.1992Z" fill="white"/>
<path d="M39.6668 65.8C39.6668 56 34.5668 54.5 31.9668 54.5H28.4668V92H31.9668V77C34.5668 77 39.6668 75.5 39.6668 65.8ZM36.0668 65.75C36.0668 75.15 34.5168 76.35 31.9668 76.35V55.15C34.5668 55.15 36.0668 56.4 36.0668 65.75Z" fill="white"/>
<path d="M51.627 54.5V67H46.127V54.5H42.627V92H46.127V67.7H51.627V92H55.127V54.5H51.627Z" fill="white"/>
<path d="M71.3074 79.45C71.3074 69.75 66.2074 67 63.6074 67V54.5H60.1074V92H63.6074C66.2074 92 71.3074 89.25 71.3074 79.45ZM67.7074 79.5C67.7074 88.85 66.2074 91.35 63.6074 91.35V67.65C66.1574 67.65 67.7074 70.1 67.7074 79.5ZM76.6074 92V54.5H73.1074V92H76.6074Z" fill="white"/>
<path d="M89.7672 50.65H87.7172V55.55H88.2672L89.7672 50.65ZM89.1172 67.9V92H92.6172V54.5L84.6172 78.5V54.5H81.1172V92L89.1172 67.9Z" fill="white"/>
</svg>
