<svg width="129" height="42" viewBox="0 0 129 42" fill="none" xmlns="http://www.w3.org/2000/svg">
<path d="M3.85 18.9V19.75H7.35V18.9H3.85ZM3.95 37.7C2.55 37.7 1.55 37.05 0.9 35.6H0C1.1 37.95 2.5 38.35 3.95 38.35C6.2 38.35 10.6 37.65 10.6 19.2C10.6 0.75 6.2 0.25 3.95 0.25C2.5 0.25 1.1 0.650001 0 3H0.9C1.55 1.55 2.55 0.900001 3.95 0.900001C5.2 0.900001 6.95 1.65 6.95 19.3C6.95 37 5.2 37.7 3.95 37.7Z" fill="white"/>
<path d="M15.8594 1.2V38H19.3594V1.2H23.1094V0.5H12.1094V1.2H15.8594Z" fill="white"/>
<path d="M29.0859 18.95V0.5H25.5859V38H29.0859V19.65H32.0859C32.1359 37.8 36.4859 38.35 38.7359 38.35C40.9859 38.35 45.3859 37.7 45.3859 19.3C45.3859 0.75 40.9859 0.25 38.7359 0.25C36.4859 0.25 32.0859 0.600002 32.0859 18.95H29.0859ZM41.7359 19.3C41.6859 37 39.9859 37.7 38.7359 37.7C37.4859 37.7 35.7359 37 35.7359 19.3C35.7359 1.65 37.4859 0.900001 38.7359 0.900001C39.9859 0.900001 41.6859 1.65 41.7359 19.3Z" fill="white"/>
<path d="M47.7102 37.2L53.4102 1.4H54.4102V37.2H47.7102ZM46.6102 38H57.8102L56.9102 41.15H57.8602L59.0102 37.2H57.9102V0.5H52.6602L46.7102 37.2H45.4102L46.5602 41.15H47.5102L46.6102 38Z" fill="white"/>
<path d="M91.0539 1.4V38H89.6039L81.5039 5.4V38H79.0039V37.1H80.6539V0.5H83.8539L90.2039 25.9V0.5H92.7039V1.4H91.0539ZM101.104 13.7V13H95.6039V13.7H101.104ZM95.4539 5.95C95.4539 11.55 97.7039 11.75 98.4039 11.75C99.0539 11.75 101.354 11.55 101.354 6C101.354 0.400001 99.0539 0.25 98.4039 0.25C97.7039 0.25 95.4539 0.400001 95.4539 5.95ZM99.3039 6C99.3039 11.35 98.7539 11.3 98.4039 11.3C98.0039 11.3 97.5039 11.35 97.5039 6C97.5039 0.650001 98.0039 0.7 98.4039 0.7C98.7539 0.7 99.3039 0.650001 99.3039 6Z" fill="white"/>
<path d="M107.9 38H111.4V0.5L104.15 3V3.9L107.9 2.6V38Z" fill="white"/>
<path d="M115.381 19.2C115.381 37.65 119.631 38.35 121.881 38.35C124.131 38.35 128.381 37.7 128.381 19.3C128.381 0.75 124.131 0.25 121.881 0.25C119.631 0.25 115.381 0.75 115.381 19.2ZM124.881 19.3C124.831 37 123.131 37.7 121.881 37.7C120.631 37.7 118.881 37 118.881 19.3C118.881 1.65 120.631 0.900001 121.881 0.900001C123.131 0.900001 124.831 1.65 124.881 19.3Z" fill="white"/>
</svg>
